<svg width="40" height="40" viewBox="0 0 40 40" fill="none" xmlns="http://www.w3.org/2000/svg">
<path d="M29.6519 10.7749C27.9829 3.28211 20.8179 -1.37768 13.644 0.365484C7.62022 1.82999 3.34845 7.42791 3.33066 13.8866C3.33066 16.1128 3.84353 18.3049 4.83069 20.2772C0.375134 22.7696 -1.29974 28.5626 1.08663 33.2162C2.6815 36.3248 5.78527 38.263 9.16473 38.2599H19.9997V34.7798H9.16473C5.95128 34.7891 3.33963 32.0768 3.32777 28.7205C3.31887 25.9339 5.12712 23.5003 7.70914 22.813L10.1044 22.1658L8.63408 20.0883C7.35345 18.2987 6.66276 16.1221 6.66276 13.8866C6.70426 8.11836 11.2161 3.47715 16.7388 3.5205C21.6894 3.56075 25.8664 7.37527 26.563 12.4933L26.729 13.8123L27.992 13.9857C33.4584 14.735 37.309 19.9706 36.5946 25.68C36.1055 29.5813 33.5531 32.8632 29.9987 34.1668V37.7986C37.1223 35.8851 41.4089 28.3056 39.5769 20.8655C38.3348 15.8279 34.5077 11.9329 29.6519 10.7718V10.7749Z" fill="white"/>
<path d="M30.4851 29.0458L32.8418 26.5842L27.3546 20.8532C26.0532 19.4939 23.9425 19.4939 22.6412 20.8532L17.1541 26.5842L19.5107 29.0458L23.3319 25.0547V40.0001H26.6639V25.0547L30.4851 29.0458Z" fill="white"/>
</svg>
