<svg width="40" height="40" viewBox="0 0 40 40" fill="none" xmlns="http://www.w3.org/2000/svg">
<path d="M20 0C8.97156 0 0 8.97159 0 20C0 31.0284 8.97156 40 20 40C31.0284 40 40 31.0284 40 20C40 8.97159 31.0284 0 20 0ZM24.5707 28.3323H15.4077L10.5652 19.7313L15.4818 11.6646H24.58L29.6479 20.0062L24.5738 28.3323H24.5707ZM26.5287 11.6677H36.3249C37.6066 14.1692 38.3292 17.0012 38.3292 20C38.3292 22.9988 37.6622 25.6084 36.4701 28.0389L26.5257 11.6677H26.5287ZM35.3582 9.99996H16.501L21.5411 1.73258C27.3224 2.21745 32.3502 5.39218 35.3613 9.99996H35.3582ZM19.6263 1.67076L9.63248 18.0698L4.88572 9.63865C8.12846 4.92278 13.5145 1.79429 19.6263 1.67076ZM3.8882 11.2631L13.4991 28.3354H3.67512C2.39346 25.8338 1.6708 23.0019 1.6708 20.0031C1.6708 16.8406 2.47683 13.8635 3.89129 11.2662L3.8882 11.2631ZM4.64177 30H23.5577L18.5146 38.2736C12.7116 37.8042 7.66215 34.6232 4.64177 30ZM20.4293 38.3292L30.6208 21.6121L35.5436 29.7128C32.3688 34.7714 26.7974 38.181 20.4324 38.3261L20.4293 38.3292Z" fill="white"/>
</svg>
