<svg width="282" height="45" viewBox="0 0 282 45" fill="none" xmlns="http://www.w3.org/2000/svg">
<path d="M45.8088 2.92853H49.2117V30.7038C49.2117 37.6908 43.5472 43.3554 36.5602 43.3554C31.8727 43.3554 27.7917 40.799 25.6059 37.0128C23.4201 40.799 19.339 43.3554 14.6516 43.3554C7.66456 43.3554 2 37.6908 2 30.7038V2.92853H5.39453V30.7038C5.39453 35.8083 9.54713 39.9609 14.6516 39.9609C19.756 39.9609 23.9128 35.8083 23.9128 30.7038V2.92853H27.3073V30.7038C27.3073 35.8083 31.46 39.9609 36.5644 39.9609C41.6688 39.9609 45.8172 35.8251 45.8172 30.7207V2.92432L45.8088 2.92853Z" fill="white" stroke="white" stroke-width="3" stroke-miterlimit="10"/>
<path d="M99.7338 23.1441C99.7338 34.309 90.6832 43.3597 79.5183 43.3597C68.3534 43.3597 59.3027 34.309 59.3027 23.1441C59.3027 11.9793 68.3534 2.92859 79.5183 2.92859C90.6832 2.92859 99.7338 11.9793 99.7338 23.1441ZM96.3393 23.1441C96.3393 13.8703 88.7922 6.32309 79.5183 6.32309C70.2444 6.32309 62.6973 13.8703 62.6973 23.1441C62.6973 32.418 70.2444 39.9651 79.5183 39.9651C88.7922 39.9651 96.3393 32.418 96.3393 23.1441Z" fill="black" stroke="black" stroke-width="3" stroke-miterlimit="10"/>
<path d="M150.273 23.1441C150.273 34.309 141.222 43.3597 130.057 43.3597C118.892 43.3597 109.842 34.309 109.842 23.1441C109.842 11.9793 118.892 2.92859 130.057 2.92859C141.222 2.92859 150.273 11.9793 150.273 23.1441ZM146.878 23.1441C146.878 13.8703 139.331 6.32309 130.057 6.32309C120.783 6.32309 113.236 13.8703 113.236 23.1441C113.236 32.418 120.783 39.9651 130.057 39.9651C139.331 39.9651 146.878 32.418 146.878 23.1441Z" fill="white" stroke="white" stroke-width="3" stroke-miterlimit="10"/>
<path d="M200.811 23.1441C200.811 34.309 191.761 43.3597 180.596 43.3597H160.38V39.9651H180.596C189.87 39.9651 197.417 32.418 197.417 23.1441C197.417 13.8703 189.87 6.32309 180.596 6.32309H160.38V2.92859H180.596C191.761 2.92859 200.811 11.9793 200.811 23.1441Z" fill="white" stroke="white" stroke-width="3" stroke-miterlimit="10"/>
<path d="M213.459 38.2805C214.861 38.2805 215.999 39.4177 215.999 40.8201C215.999 42.2226 214.861 43.3597 213.459 43.3597C212.057 43.3597 210.919 42.2226 210.919 40.8201C210.919 39.4177 212.057 38.2805 213.459 38.2805Z" fill="white" stroke="white" stroke-width="3" stroke-miterlimit="10"/>
<path d="M226.077 2.92859H229.463L229.471 43.3597H226.077V2.92859Z" fill="#FBAE17" stroke="#FBAE17" stroke-width="3" stroke-miterlimit="10"/>
<path d="M280.006 23.1441C280.006 34.309 270.955 43.3597 259.791 43.3597H239.575V39.9651H259.791C269.064 39.9651 276.612 32.418 276.612 23.1441C276.612 13.8703 269.064 6.32309 259.791 6.32309H239.575V2.92859H259.791C270.955 2.92859 280.006 11.9793 280.006 23.1441Z" fill="#FBAE17" stroke="#FBAE17" stroke-width="3" stroke-miterlimit="10"/>
<path fill-rule="evenodd" clip-rule="evenodd" d="M77.6611 2.52841C79.9311 2.35995 82.3065 3.05487 83.9153 4.01511C85.4778 4.95008 86.9181 6.32726 87.8826 7.75077C88.9944 9.40171 89.6725 11.0948 89.942 13.3943C90.199 15.5801 89.862 18.4061 89.5588 20.4108C89.2387 22.5503 88.6786 24.6729 88.2616 26.8166C87.154 32.5148 85.8484 38.609 83.1151 42.8669C82.8624 43.2628 82.5423 43.8271 82.277 43.9324C81.7337 44.1472 80.6092 44.1556 79.8385 44.1598C74.0981 44.2019 69.398 42.0414 66.1509 39.3544C64.1293 37.6867 62.5837 36.0273 61.1938 33.673C59.884 31.4535 58.8901 28.7708 58.5616 25.6668C57.8414 18.8272 60.381 13.1879 63.5565 9.6923C65.2412 7.83921 67.1574 6.24723 69.5033 5.0006C71.8407 3.7624 74.3592 2.76847 77.6611 2.5242V2.52841ZM65.0769 11.6044C62.769 14.7252 61.5982 19.3831 62.0277 24.6434C62.5205 30.6617 65.5444 35.0839 69.8444 37.3792C71.5543 38.2931 73.9212 39.1354 76.4018 38.9038C80.0912 38.5626 81.5905 36.4316 83.1488 33.8331C84.1553 32.1569 84.9092 30.4806 85.5873 28.5349C86.9139 24.7445 88.0468 20.2929 87.5709 15.3443C87.2888 12.413 86.1221 9.89866 84.3322 8.36565C82.6139 6.89581 79.1183 6.1883 76.1744 6.19251C70.6488 6.19672 67.3554 8.52572 65.0769 11.6086V11.6044Z" fill="white"/>
<path fill-rule="evenodd" clip-rule="evenodd" d="M84.7913 3.1012C88.0847 3.92666 91.3403 5.74187 93.6356 7.90662C93.9304 8.18458 94.52 8.62259 94.5874 8.85844C94.7264 9.33856 94.5158 10.3662 94.4358 11.0316C94.1873 13.0532 93.6566 14.9147 93.2523 16.7509C92.7006 19.2737 92.3258 21.9227 92.1447 24.7571C91.8457 29.4615 91.4414 34.768 90.6959 39.1312C90.5948 39.7293 90.5232 40.6558 90.3127 41.0391C90.1484 41.3465 89.3482 41.675 88.9397 41.8772C87.5204 42.5889 85.7473 43.2543 84.1343 43.5913C86.6149 39.544 87.6678 34.4016 88.9776 29.1034C89.6093 26.5512 90.1568 23.8264 90.6159 21.0594C90.8517 19.6485 91.0413 18.2123 91.1508 16.7509C91.2603 15.2937 91.1213 13.8449 91.075 12.3667C90.7633 11.6423 90.6664 10.9095 90.4264 10.2314C89.3061 7.098 87.2298 4.95008 84.7829 3.1012H84.7913Z" fill="white"/>
<path fill-rule="evenodd" clip-rule="evenodd" d="M75.37 7.37169C77.3579 7.27482 79.291 7.63281 80.8998 8.05818C82.6644 8.52566 83.8142 9.19954 84.6734 10.4588C86.2695 12.792 86.7791 16.9067 86.3117 20.6381C85.9074 23.8768 84.964 27.503 83.6415 30.3248C83.0056 31.6809 82.2264 33.037 81.4684 34.33C80.6639 35.6945 79.6574 36.6885 78.2676 37.3034C74.7804 38.8448 71.2384 36.9833 68.8884 35.4334C66.4415 33.8204 64.7526 31.0281 63.8934 28.0758C63.4512 26.5512 63.1312 24.7571 63.0933 22.8534C63.0553 20.8698 63.3375 19.0335 63.7418 17.3236C64.4536 14.3082 66.273 11.3937 68.5093 9.73437C68.7199 9.57855 69.0147 9.51962 69.2716 9.35116C69.5033 9.20375 69.6844 8.98894 69.9202 8.85417C71.39 8.0287 73.0494 7.47697 75.3742 7.36747L75.37 7.37169ZM70.9478 10.9179C67.945 12.7078 66.3025 15.6264 65.7255 19.6863C65.3254 22.4828 65.8308 25.4225 66.7531 27.6168C67.6797 29.8152 69.2211 31.7315 71.0236 32.7254C71.3479 32.9065 71.7944 33.1255 72.1313 33.2223C74.2244 33.8288 76.1407 32.7928 77.4295 31.8115C78.7645 30.7965 79.83 29.3772 80.6681 28.0379C81.5989 26.5554 82.2391 25.0056 82.8413 23.1946C83.4436 21.3878 83.8521 19.3157 83.6794 17.092C83.4773 14.4766 82.2685 12.4088 80.3986 11.2969C79.0214 10.4799 76.6882 9.7049 74.6035 9.84809C73.1336 9.94917 72.0218 10.2735 70.9436 10.9179H70.9478ZM81.6242 30.249C81.6073 30.2321 81.6494 30.2743 81.6242 30.249V30.249Z" fill="white"/>
<path fill-rule="evenodd" clip-rule="evenodd" d="M91.7275 40.0872C92.713 35.2187 92.9068 30.0594 93.3279 24.8371C93.5385 22.2343 93.7322 19.758 94.3177 17.4037C94.5998 16.275 94.8399 15.0873 95.0799 13.9334C95.3411 12.6952 95.6064 11.4822 95.6906 10.2356C96.3097 10.6357 97.2363 12.2361 97.788 13.2089C97.9649 13.5248 98.3144 14.0513 98.3229 14.3166C98.3439 14.8894 97.6659 15.917 97.4089 16.5656C96.5245 18.8062 95.4127 20.9498 95.1979 23.7716C95.0968 25.1109 95.2442 26.6607 95.3116 28.1179C95.4169 30.4301 95.4422 32.3506 95.3495 34.6754C95.32 35.4292 95.3958 36.3852 95.1979 36.9622C94.9831 37.5898 94.1197 38.2089 93.5975 38.6764C92.9615 39.2491 92.3382 39.7924 91.7275 40.0872Z" fill="white"/>
<path fill-rule="evenodd" clip-rule="evenodd" d="M74.3422 11.0316C77.2398 10.7662 80.0489 12.0129 81.2829 13.6638C82.6517 15.4916 82.8201 18.6966 82.121 21.4804C81.4935 23.9821 80.4911 26.0879 79.1856 28.1137C77.9642 30.0047 76.0564 32.001 73.6937 32.1947C72.784 32.2705 71.7858 31.8494 71.2552 31.5082C70.1138 30.7754 68.863 29.234 68.1681 27.9621C67.3847 26.5301 66.9341 24.7065 66.7951 22.7018C66.5045 18.5324 67.987 14.9988 70.1896 12.9015C71.1709 11.9707 72.506 11.2 74.3465 11.0316H74.3422ZM72.8177 13.091C71.8321 13.5459 70.9098 14.5482 70.2991 15.4537C69.6 16.494 68.9767 18.3007 68.7745 19.9138C68.5471 21.7163 68.7661 23.6663 69.4989 25.0224C70.1265 26.1848 71.3394 27.2545 73.3104 26.8165C75.2814 26.3785 76.4859 25.0308 77.8463 23.4599C79.1308 21.9774 80.1205 20.0653 80.3227 18.0438C80.5038 16.2665 79.8678 14.9441 78.9876 14.1565C78.0611 13.3226 76.1785 12.5267 74.3759 12.7078C73.8663 12.7583 73.2178 12.9015 72.8134 13.091H72.8177Z" fill="white"/>
<path fill-rule="evenodd" clip-rule="evenodd" d="M78.8404 15.7234C79.9101 19.3453 77.4042 22.7103 75.2563 24.4918C74.1571 25.4057 71.8828 26.4334 70.7583 24.8751C69.1537 22.6514 70.0045 17.7196 71.5207 15.7234C72.2324 14.7884 73.3527 13.8997 74.8394 13.8155C76.5577 13.7186 78.0402 14.8263 78.8446 15.7234H78.8404ZM72.5525 16.5615C71.9966 17.3364 71.1837 19.4801 71.6007 21.0594C71.786 21.7712 72.2914 22.3903 73.1253 22.3945C74.6835 22.4029 76.5324 20.4024 77.1684 19.1515C78.2507 17.0205 76.9241 14.94 74.3845 15.3401C73.5927 15.4664 72.8978 16.0813 72.5525 16.5615Z" fill="white"/>
<path fill-rule="evenodd" clip-rule="evenodd" d="M98.9715 15.8749C99.6538 17.2268 100.05 19.0209 100.269 20.8319C100.496 22.7103 100.412 24.7234 100.117 26.5891C99.5569 30.1058 98.2176 33.155 96.4572 35.3576C96.5877 32.4264 96.5246 29.5583 96.4572 26.7786C96.4319 25.7931 96.314 24.795 96.3814 23.8431C96.6046 20.6845 98.1165 18.3344 98.9757 15.8749H98.9715Z" fill="white"/>
<path fill-rule="evenodd" clip-rule="evenodd" d="M74.6453 16.4477C75.8625 16.1992 76.7511 17.1847 76.2457 18.3934C75.9972 18.9831 75.5255 19.5305 74.9486 20.1075C74.3252 20.7308 72.8386 21.9396 72.6617 20.4108C72.4679 18.7514 73.4282 16.6962 74.6453 16.4435V16.4477Z" fill="white"/>
</svg>
