<svg width="42" height="42" viewBox="0 0 42 42" fill="none" xmlns="http://www.w3.org/2000/svg">
<path fill-rule="evenodd" clip-rule="evenodd" d="M19.2426 0.196625C21.5127 0.0281621 23.888 0.723084 25.4968 1.68332C27.0593 2.61829 28.4997 3.99547 29.4641 5.41899C30.576 7.06992 31.254 8.76299 31.5236 11.0625C31.7805 13.2483 31.4436 16.0743 31.1403 18.079C30.8203 20.2185 30.2601 22.3411 29.8432 24.4848C28.7355 30.183 27.4299 36.2772 24.6966 40.5351C24.4439 40.931 24.1238 41.4953 23.8585 41.6006C23.3152 41.8154 22.1907 41.8238 21.42 41.828C15.6797 41.8701 10.9795 39.7096 7.73241 37.0227C5.71086 35.3549 4.1652 33.6955 2.77538 31.3412C1.46558 29.1217 0.47165 26.439 0.143147 23.335C-0.577032 16.4954 1.96255 10.8561 5.13808 7.36052C6.82271 5.50742 8.73897 3.91544 11.0848 2.66882C13.4222 1.43061 15.9408 0.436681 19.2426 0.192409V0.196625ZM6.65845 9.27259C4.35051 12.3934 3.1797 17.0513 3.60928 22.3116C4.10203 28.3299 7.12594 32.7521 11.426 35.0474C13.1359 35.9613 15.5028 36.8036 17.9834 36.572C21.6727 36.2309 23.172 34.0998 24.7303 31.5013C25.7369 29.8251 26.4908 28.1488 27.1688 26.2031C28.4955 22.4127 29.6284 17.9611 29.1525 13.0125C28.8703 10.0812 27.7037 7.56687 25.9138 6.03386C24.1954 4.56402 20.6998 3.85651 17.756 3.86073C12.2304 3.86494 8.93691 6.19393 6.65845 9.2768V9.27259Z" fill="white" fill-opacity="0.5"/>
<path fill-rule="evenodd" clip-rule="evenodd" d="M26.3728 0.769409C29.6663 1.59488 32.9218 3.41008 35.2171 5.57483C35.5119 5.85279 36.1016 6.2908 36.169 6.52665C36.3079 7.00677 36.0973 8.03441 36.0173 8.69984C35.7688 10.7214 35.2382 12.5829 34.8339 14.4191C34.2822 16.9419 33.9073 19.591 33.7262 22.4253C33.4272 27.1297 33.0229 32.4363 32.2775 36.7994C32.1764 37.3975 32.1048 38.324 31.8942 38.7073C31.73 39.0147 30.9298 39.3432 30.5212 39.5454C29.1019 40.2572 27.3289 40.9226 25.7158 41.2595C28.1964 37.2122 29.2493 32.0698 30.5591 26.7717C31.1909 24.2194 31.7384 21.4946 32.1974 18.7276C32.4333 17.3167 32.6228 15.8806 32.7323 14.4191C32.8418 12.9619 32.7028 11.5131 32.6565 10.0349C32.3448 9.31048 32.248 8.57769 32.0079 7.89963C30.8876 4.76622 28.8113 2.61829 26.3644 0.769409H26.3728Z" fill="white" fill-opacity="0.5"/>
<path fill-rule="evenodd" clip-rule="evenodd" d="M16.9515 5.0399C18.9394 4.94303 20.8725 5.30102 22.4813 5.72639C24.246 6.19387 25.3957 6.86776 26.2549 8.12702C27.8511 10.4602 28.3607 14.5749 27.8932 18.3064C27.4889 21.5451 26.5455 25.1712 25.2231 27.993C24.5871 29.3491 23.808 30.7052 23.0499 31.9982C22.2455 33.3627 21.2389 34.3567 19.8491 34.9716C16.3619 36.513 12.82 34.6515 10.4699 33.1016C8.023 31.4886 6.33415 28.6963 5.47499 25.744C5.03278 24.2194 4.7127 22.4253 4.6748 20.5217C4.63689 18.538 4.91907 16.7017 5.32338 14.9919C6.03514 11.9764 7.85453 9.06195 10.0909 7.40259C10.3015 7.24676 10.5963 7.18783 10.8532 7.01937C11.0848 6.87197 11.2659 6.65715 11.5018 6.52238C12.9716 5.69691 14.631 5.14519 16.9557 5.03568L16.9515 5.0399ZM12.5294 8.58606C9.52653 10.376 7.88402 13.2946 7.30703 17.3545C6.90693 20.151 7.41232 23.0907 8.33465 25.285C9.2612 27.4834 10.8026 29.3997 12.6052 30.3936C12.9295 30.5747 13.3759 30.7937 13.7128 30.8905C15.806 31.497 17.7223 30.461 19.011 29.4797C20.3461 28.4647 21.4116 27.0454 22.2497 25.7061C23.1804 24.2236 23.8206 22.6738 24.4229 20.8628C25.0251 19.056 25.4336 16.984 25.261 14.7602C25.0588 12.1449 23.8501 10.077 21.9802 8.96512C20.603 8.14807 18.2698 7.37311 16.185 7.51631C14.7152 7.61739 13.6033 7.94169 12.5252 8.58606H12.5294ZM23.2057 27.9172C23.1889 27.9004 23.231 27.9425 23.2057 27.9172V27.9172Z" fill="white" fill-opacity="0.5"/>
<path fill-rule="evenodd" clip-rule="evenodd" d="M33.3091 37.7554C34.2946 32.8869 34.4883 27.7277 34.9095 22.5053C35.1201 19.9025 35.3138 17.4262 35.8992 15.0719C36.1814 13.9432 36.4214 12.7556 36.6615 11.6016C36.9226 10.3634 37.1879 9.15043 37.2722 7.90381C37.8913 8.30391 38.8178 9.90428 39.3695 10.8772C39.5464 11.193 39.896 11.7195 39.9044 11.9848C39.9255 12.5576 39.2474 13.5852 38.9905 14.2338C38.1061 16.4744 36.9942 18.6181 36.7794 21.4398C36.6783 22.7791 36.8258 24.3289 36.8931 25.7861C36.9984 28.0983 37.0237 30.0188 36.931 32.3436C36.9016 33.0975 36.9774 34.0535 36.7794 34.6304C36.5646 35.258 35.7013 35.8771 35.179 36.3446C34.5431 36.9174 33.9198 37.4606 33.3091 37.7554Z" fill="white" fill-opacity="0.5"/>
<path fill-rule="evenodd" clip-rule="evenodd" d="M15.9238 8.69977C18.8214 8.43444 21.6305 9.68107 22.8645 11.332C24.2332 13.1598 24.4017 16.3648 23.7026 19.1487C23.075 21.6503 22.0727 23.7561 20.7671 25.7819C19.5457 27.6729 17.6379 29.6692 15.2752 29.8629C14.3655 29.9387 13.3674 29.5176 12.8367 29.1764C11.6954 28.4436 10.4445 26.9022 9.74962 25.6303C8.96627 24.1983 8.51564 22.3747 8.37665 20.37C8.08606 16.2006 9.56853 12.667 11.7712 10.5697C12.7525 9.63893 14.0875 8.86823 15.928 8.69977H15.9238ZM14.3992 10.7592C13.4137 11.2141 12.4914 12.2164 11.8807 13.1219C11.1816 14.1622 10.5582 15.9689 10.3561 17.582C10.1287 19.3845 10.3477 21.3345 11.0805 22.6906C11.708 23.853 12.9209 24.9227 14.892 24.4847C16.863 24.0467 18.0675 22.699 19.4278 21.1281C20.7124 19.6457 21.7021 17.7336 21.9042 15.712C22.0853 13.9347 21.4494 12.6123 20.5692 11.8247C19.6426 10.9908 17.76 10.1949 15.9575 10.376C15.4479 10.4265 14.7993 10.5697 14.395 10.7592H14.3992Z" fill="white" fill-opacity="0.5"/>
<path fill-rule="evenodd" clip-rule="evenodd" d="M20.4219 13.3916C21.4916 17.0135 18.9858 20.3786 16.8379 22.1601C15.7386 23.074 13.4644 24.1016 12.3399 22.5433C10.7353 20.3196 11.586 15.3879 13.1022 13.3916C13.814 12.4566 14.9342 11.568 16.4209 11.4837C18.1392 11.3869 19.6217 12.4945 20.4261 13.3916H20.4219ZM14.134 14.2297C13.5781 15.0046 12.7653 17.1483 13.1822 18.7276C13.3675 19.4394 13.8729 20.0585 14.7068 20.0627C16.2651 20.0711 18.114 18.0706 18.7499 16.8198C19.8323 14.6887 18.5056 12.6082 15.9661 13.0083C15.1743 13.1347 14.4794 13.7496 14.134 14.2297Z" fill="white" fill-opacity="0.5"/>
<path fill-rule="evenodd" clip-rule="evenodd" d="M40.553 13.5431C41.2353 14.895 41.6312 16.6891 41.8502 18.5001C42.0776 20.3785 41.9934 22.3916 41.6986 24.2573C41.1384 27.774 39.7992 30.8232 38.0387 33.0258C38.1693 30.0946 38.1061 27.2265 38.0387 24.4469C38.0134 23.4614 37.8955 22.4632 37.9629 21.5114C38.1861 18.3527 39.6981 16.0026 40.5572 13.5431H40.553Z" fill="white" fill-opacity="0.5"/>
<path fill-rule="evenodd" clip-rule="evenodd" d="M16.2269 14.1159C17.444 13.8674 18.3326 14.8529 17.8273 16.0616C17.5788 16.6513 17.1071 17.1987 16.5301 17.7757C15.9068 18.399 14.4201 19.6078 14.2432 18.079C14.0495 16.4196 15.0097 14.3644 16.2269 14.1117V14.1159Z" fill="white" fill-opacity="0.5"/>
</svg>
