<svg width="40" height="40" viewBox="0 0 40 40" fill="none" xmlns="http://www.w3.org/2000/svg">
<path d="M29.2857 6.73874L32.8611 0.872891L31.4367 0.00816623L27.8611 5.87391L29.2897 6.74282L29.2857 6.73874ZM6.63265 19.9633C6.63265 23.8425 8.32238 27.526 11.2612 30.0673C12.5673 31.1931 13.3143 32.8085 13.3143 34.4973V40H26.6817V34.4973C26.6817 32.8167 27.4449 31.189 28.7755 30.0305C32.2204 27.0324 33.8858 22.5209 33.2205 17.9604C32.3633 12.0783 27.445 7.33831 21.5185 6.68157C17.6613 6.25326 13.9551 7.43218 11.0816 9.99796C8.25302 12.5311 6.62867 16.1574 6.62867 19.9551L6.63265 19.9633ZM14.9878 34.5012C14.9878 34.1015 14.9224 33.714 14.8571 33.3265H25.1429C25.0776 33.714 25.0122 34.1056 25.0122 34.5053V38.3398H14.9878V34.5053V34.5012ZM8.30198 19.9633C8.30198 16.6428 9.7225 13.4651 12.2001 11.2502C14.7103 9.00666 17.9468 7.97061 21.3387 8.34589C26.5183 8.91697 30.8203 13.0654 31.5673 18.2051C32.1469 22.1986 30.6939 26.1513 27.6776 28.7742C26.7551 29.5778 26.0693 30.573 25.6162 31.654H20.8367V22.3821C22.7428 21.9946 24.1797 20.3099 24.1797 18.2908H22.5102C22.5102 19.6736 21.3836 20.7954 20.004 20.7954C18.6244 20.7954 17.498 19.6695 17.498 18.2908H15.8285C15.8285 20.3099 17.2654 21.9946 19.1715 22.3821V31.654H14.3999C13.9509 30.5771 13.2776 29.5941 12.3633 28.8068C9.78777 26.5837 8.31015 23.3612 8.31015 19.9673L8.30198 19.9633ZM7.13887 0.868807L8.56744 0L12.1429 5.86575L10.7143 6.73465L7.13887 0.868807ZM0.68977 8.12152L6.59997 10.7893L5.91019 12.3108L0 9.64303L0.68977 8.12152ZM40 9.64303L34.0898 12.3108L33.4 10.7893L39.3102 8.12152L40 9.64303Z" fill="white"/>
</svg>
