<svg width="40" height="40" viewBox="0 0 40 40" fill="none" xmlns="http://www.w3.org/2000/svg">
<path d="M29.2536 8.50108C28.5124 3.80939 24.3934 0.229492 19.5838 0.229492C14.7742 0.229492 10.6553 3.80939 9.91404 8.50108C4.30001 9.24232 0 14.0856 0 19.8133C0 26.1096 5.12548 31.2351 11.4218 31.2351H18.7668V39.3971H20.4009V31.2351H27.7459C34.0464 31.2351 39.1676 26.1096 39.1676 19.8133C39.1676 14.0856 34.8634 9.24232 29.2536 8.50108ZM27.7459 29.6052H20.4009V25.0484L26.6887 18.7604L25.5348 17.6065L20.4009 22.7404V14.9195H18.7668V22.7404L13.6329 17.6065L12.4789 18.7604L18.7668 25.0484V29.6052H11.4176C6.01833 29.6052 1.62566 25.2125 1.62566 19.8133C1.62566 14.7131 5.60983 10.4257 10.6974 10.0593L11.3923 10.0088L11.4513 9.31389C11.8093 5.13179 15.3807 1.85942 19.5754 1.85942C23.7701 1.85942 27.3415 5.13179 27.6995 9.31389L27.7585 10.0088L28.4534 10.0593C33.541 10.43 37.5251 14.7131 37.5251 19.8133C37.5251 25.2125 33.1324 29.6052 27.7332 29.6052H27.7459Z" fill="white"/>
</svg>
