<svg width="40" height="40" viewBox="0 0 40 40" fill="none" xmlns="http://www.w3.org/2000/svg">
<path d="M11.6663 0C18.2048 0 23.3327 2.92835 23.3327 6.6666V13.9632C24.8416 13.5624 26.5304 13.3333 28.3337 13.3333C34.8723 13.3333 40 16.2618 40 20V33.3334C40 37.0716 34.8764 40 28.3337 40C21.7911 40 16.6673 37.0716 16.6673 33.3334V32.6912C15.1134 33.1043 13.4082 33.3334 11.6663 33.3334C5.12771 33.3334 0 30.4049 0 26.6667V6.6666C0 2.92835 5.12362 0 11.6663 0ZM11.6663 1.66865C6.24813 1.66865 1.6684 3.95903 1.6684 6.67069C1.6684 9.38236 6.24813 11.6727 11.6663 11.6727C17.0844 11.6727 21.6643 9.38236 21.6643 6.67069C21.6643 3.95903 17.0844 1.66865 11.6663 1.66865ZM28.3337 15.002C22.9156 15.002 18.3357 17.2924 18.3357 20.0041C18.3357 22.7158 22.9156 25.0061 28.3337 25.0061C33.7519 25.0061 38.3316 22.7158 38.3316 20.0041C38.3316 17.2924 33.7519 15.002 28.3337 15.002ZM38.3316 23.4683C36.3116 25.3988 32.6355 26.6667 28.3337 26.6667C24.032 26.6667 20.3557 25.3947 18.3357 23.4683V26.6667C18.3357 29.3784 22.9156 31.6687 28.3337 31.6687C33.7519 31.6687 38.3316 29.3784 38.3316 26.6667V23.4683ZM28.3337 38.3354C33.7519 38.3354 38.3316 36.0451 38.3316 33.3334V30.135C36.3116 32.0655 32.6355 33.3334 28.3337 33.3334C24.032 33.3334 20.3557 32.0614 18.3357 30.135V33.3334C18.3357 36.0451 22.9156 38.3354 28.3337 38.3354ZM11.6663 31.6687C13.4287 31.6687 15.142 31.4193 16.6673 30.9653V26.0286C15.1134 26.4417 13.4123 26.6667 11.6663 26.6667C7.36447 26.6667 3.68845 25.3947 1.6684 23.4683V26.6667C1.6684 29.3784 6.24813 31.6687 11.6663 31.6687ZM11.6663 25.002C13.4328 25.002 15.142 24.7485 16.6673 24.2945V20C16.6673 19.7791 16.6878 19.5582 16.7246 19.3456C15.1625 19.7709 13.4533 20 11.6705 20C7.36866 20 3.69244 18.728 1.6724 16.8016V20C1.6724 22.7117 6.25233 25.002 11.6705 25.002H11.6663ZM11.6663 18.3353C13.8458 18.3353 15.8946 17.9672 17.6407 17.2965C18.5035 16.1595 19.9019 15.1943 21.6643 14.5031V10.139C19.6443 12.0695 15.968 13.3374 11.6663 13.3374C7.36447 13.3374 3.68845 12.0654 1.6684 10.139V13.3374C1.6684 16.0491 6.24813 18.3394 11.6663 18.3394V18.3353Z" fill="white"/>
</svg>
