<svg width="33" height="30" viewBox="0 0 33 30" fill="none" xmlns="http://www.w3.org/2000/svg">
<path d="M32.2698 8.05332C32.2282 8.05332 28.0209 8.2984 26.0761 6.36802L25.3837 5.67426L28.6641 2.40548L27.6917 1.43649L24.4152 4.70151L19.7122 0L12.5121 7.17482L17.2113 11.8763L0 29.031L0.972349 30L18.1837 12.8491L18.876 13.5428C20.7867 15.4468 20.5862 19.6657 20.5862 19.7072L20.5484 20.431H21.2748C28.1798 20.431 33 15.6277 33 8.74699V8.01558L32.2698 8.06087V8.05332ZM21.971 19.036C21.9445 17.5883 21.6683 14.3798 19.8522 12.5739L14.4569 7.17482L19.7084 1.94174L25.1 7.33692C26.935 9.16549 30.1472 9.4219 31.6039 9.43698C31.3012 14.9076 27.4571 18.7382 21.9672 19.036H21.971Z" fill="white"/>
</svg>
